<svg xmlns="http://www.w3.org/2000/svg" viewBox="0 0 814 176"><defs><style>.cls-1{fill:#0a0a60;}.cls-2{fill:none;stroke:#0a0a60;stroke-miterlimit:10;}</style></defs><g id="Layer_2" data-name="Layer 2"><g id="Layer_1-2" data-name="Layer 1"><rect class="cls-1" x="23" y="55" width="32" height="32"/><rect class="cls-1" x="60" y="55" width="32" height="32"/><rect class="cls-1" x="97" y="55" width="32" height="32"/><rect class="cls-1" x="23" y="92" width="32" height="32"/><rect class="cls-1" x="60" y="92" width="32" height="32"/><rect class="cls-2" x="97.5" y="92.5" width="32" height="32"/><rect class="cls-1" x="23" y="129" width="32" height="32"/><rect class="cls-2" x="60.5" y="129.5" width="32" height="32"/><rect class="cls-2" x="97.5" y="129.5" width="32" height="32"/><circle class="cls-2" cx="9" cy="41" r="8.5"/><rect class="cls-2" x="164.5" y="55.5" width="32" height="32"/><rect class="cls-1" x="201" y="55" width="32" height="32"/><rect class="cls-2" x="238.5" y="55.5" width="32" height="32"/><rect class="cls-1" x="164" y="92" width="32" height="32"/><rect class="cls-1" x="201" y="92" width="32" height="32"/><rect class="cls-1" x="238" y="92" width="32" height="32"/><rect class="cls-1" x="164" y="129" width="32" height="32"/><rect class="cls-1" x="201" y="129" width="32" height="32"/><rect class="cls-1" x="238" y="129" width="32" height="32"/><circle class="cls-2" cx="217" cy="41" r="8.5"/><rect class="cls-1" x="412" y="23" width="22" height="22"/><rect class="cls-1" x="438" y="23" width="22" height="22"/><rect class="cls-1" x="464" y="23" width="22" height="22"/><rect class="cls-1" x="412" y="49" width="22" height="22"/><rect class="cls-1" x="438" y="49" width="22" height="22"/><rect class="cls-1" x="464" y="49" width="22" height="22"/><rect class="cls-1" x="412" y="75" width="22" height="22"/><rect class="cls-1" x="438" y="75" width="22" height="22"/><rect class="cls-1" x="464" y="75" width="22" height="22"/><circle class="cls-2" cx="398" cy="9" r="8.5"/><rect class="cls-1" x="490" y="23" width="22" height="22"/><rect class="cls-1" x="516" y="23" width="22" height="22"/><rect class="cls-1" x="543" y="23" width="22" height="22"/><rect class="cls-1" x="490" y="49" width="22" height="22"/><rect class="cls-1" x="516" y="49" width="22" height="22"/><rect class="cls-2" x="542.5" y="49.5" width="22" height="22"/><rect class="cls-2" x="490.5" y="74.5" width="22" height="22"/><rect class="cls-2" x="516.5" y="74.5" width="22" height="22"/><rect class="cls-2" x="542.5" y="74.5" width="22" height="22"/><rect class="cls-1" x="412" y="101" width="22" height="22"/><rect class="cls-1" x="438" y="101" width="22" height="22"/><rect class="cls-2" x="463.5" y="100.5" width="22" height="22"/><rect class="cls-1" x="412" y="127" width="22" height="22"/><rect class="cls-1" x="438" y="127" width="22" height="22"/><rect class="cls-2" x="463.5" y="126.5" width="22" height="22"/><rect class="cls-1" x="412" y="153" width="22" height="22"/><rect class="cls-2" x="437.5" y="152.5" width="22" height="22"/><rect class="cls-2" x="463.5" y="152.5" width="22" height="22"/><rect class="cls-2" x="490.5" y="100.5" width="22" height="22"/><rect class="cls-2" x="516.5" y="100.5" width="22" height="22"/><rect class="cls-2" x="542.5" y="100.5" width="22" height="22"/><rect class="cls-2" x="490.5" y="126.5" width="22" height="22"/><rect class="cls-2" x="516.5" y="126.5" width="22" height="22"/><rect class="cls-2" x="542.5" y="126.5" width="22" height="22"/><rect class="cls-2" x="490.5" y="152.5" width="22" height="22"/><rect class="cls-2" x="516.5" y="152.5" width="22" height="22"/><rect class="cls-2" x="542.5" y="152.5" width="22" height="22"/><rect class="cls-2" x="634.5" y="23.5" width="22" height="22"/><rect class="cls-2" x="660" y="23" width="22" height="22"/><rect class="cls-1" x="686" y="23" width="22" height="22"/><rect class="cls-2" x="634" y="49" width="22" height="22"/><rect class="cls-1" x="660" y="49" width="22" height="22"/><rect class="cls-1" x="686" y="49" width="22" height="22"/><rect class="cls-1" x="634" y="75" width="22" height="22"/><rect class="cls-1" x="660" y="75" width="22" height="22"/><rect class="cls-1" x="686" y="75" width="22" height="22"/><circle class="cls-2" cx="711" cy="9" r="8.5"/><rect class="cls-1" x="712" y="23" width="22" height="22"/><rect class="cls-2" x="738" y="23" width="22" height="22"/><rect class="cls-2" x="764" y="23" width="22" height="22"/><rect class="cls-1" x="712" y="49" width="22" height="22"/><rect class="cls-1" x="738" y="49" width="22" height="22"/><rect class="cls-2" x="764.5" y="48.5" width="22" height="22"/><rect class="cls-1" x="712.5" y="74.5" width="22" height="22"/><rect class="cls-1" x="738.5" y="74.5" width="22" height="22"/><rect class="cls-1" x="764.5" y="74.5" width="22" height="22"/><rect class="cls-1" x="634" y="102" width="22" height="22"/><rect class="cls-1" x="660" y="102" width="22" height="22"/><rect class="cls-1" x="686.5" y="101.5" width="22" height="22"/><rect class="cls-1" x="634" y="128" width="22" height="22"/><rect class="cls-1" x="660" y="128" width="22" height="22"/><rect class="cls-1" x="686.5" y="127.5" width="22" height="22"/><rect class="cls-2" x="634" y="153" width="22" height="22"/><rect class="cls-2" x="660.5" y="153.5" width="22" height="22"/><rect class="cls-1" x="686.5" y="153.5" width="22" height="22"/><rect class="cls-1" x="712.5" y="101.5" width="22" height="22"/><rect class="cls-1" x="738.5" y="101.5" width="22" height="22"/><rect class="cls-1" x="764.5" y="101.5" width="22" height="22"/><rect class="cls-1" x="712.5" y="127.5" width="22" height="22"/><rect class="cls-1" x="738.5" y="127.5" width="22" height="22"/><rect class="cls-1" x="764.5" y="127.5" width="22" height="22"/><rect class="cls-1" x="712.5" y="153.5" width="22" height="22"/><rect class="cls-2" x="738.5" y="153.5" width="22" height="22"/><rect class="cls-2" x="764.5" y="153.5" width="22" height="22"/><rect class="cls-2" x="791" y="23" width="22" height="22"/><rect class="cls-2" x="791.5" y="48.5" width="22" height="22"/><rect class="cls-2" x="791.5" y="74.5" width="22" height="22"/><rect class="cls-1" x="791.5" y="101.5" width="22" height="22"/><rect class="cls-2" x="791.5" y="127.5" width="22" height="22"/><rect class="cls-2" x="791.5" y="153.5" width="22" height="22"/><rect class="cls-2" x="608.5" y="23.5" width="22" height="22"/><rect class="cls-2" x="608" y="49" width="22" height="22"/><rect class="cls-2" x="608" y="75" width="22" height="22"/><rect class="cls-1" x="608" y="101" width="22" height="22"/><rect class="cls-2" x="608" y="127" width="22" height="22"/><rect class="cls-2" x="608" y="153" width="22" height="22"/></g></g></svg>